# xmcd
#
# Track frame offsets:
#	182
#	11947
#	28045
#	44500
#	56050
#	70772
#	87737
#	102687
#	118147
#	132380
#
# Disc length: 1904 seconds
#
# Revision: 1
# Processed by: cddbd v1.5.1PL0 Copyright (c) Steve Scherf et al.
# Submitted via: audiograbber 1.83.01
#
DISCID=9a076e0a
DTITLE=Neal McCoy - Super Hits
DYEAR=2000
DGENRE=Country
TTITLE0=You Gotta Love That
TTITLE1=The City Put The Country Back In Me
TTITLE2=The Strongest Man In The World
TTITLE3=Love Happens Like That
TTITLE4=Then You Can Tell Me Goodbye
TTITLE5=No Doubt About It
TTITLE6=If I Was A Drinkin' Man
TTITLE7=If You Can't Be Good, Be Good At It
TTITLE8=Where Forever Begins
TTITLE9=Straighten Up And Fly Right
EXTD=
EXTT0=
EXTT1=
EXTT2=
EXTT3=
EXTT4=
EXTT5=
EXTT6=
EXTT7=
EXTT8=
EXTT9=
PLAYORDER=
